<?xml version="1.0" encoding="utf-8"?>
<!-- Generator: Adobe Illustrator 16.0.0, SVG Export Plug-In . SVG Version: 6.00 Build 0)  -->
<!DOCTYPE svg PUBLIC "-//W3C//DTD SVG 1.1//EN" "http://www.w3.org/Graphics/SVG/1.1/DTD/svg11.dtd">
<svg version="1.1" id="Capa_1" xmlns="http://www.w3.org/2000/svg" xmlns:xlink="http://www.w3.org/1999/xlink" x="0px" y="0px"
	 width="383.928px" height="500px" viewBox="0 0 383.928 500" enable-background="new 0 0 383.928 500" xml:space="preserve">
<path fill="#FFFFFF" d="M383.929,491.07V115.875c0-6.214-0.83-8.214-2.295-9.688L277.741,2.295C276.267,0.831,274.267,0,272.187,0
	L0,0.001l0,0L0.001,491.07"/>
<polygon fill="#E5E5E5" points="276.786,1.347 276.786,107.142 382.577,107.142 "/>
<path fill="#295595" d="M0,500l-0.001-151.786h383.928L383.929,500"/>
<g enable-background="new    ">
	<path fill="#295595" d="M192.079,179.883h-0.511c-6.38,18.374-12.25,36.749-20.927,57.931l-29.603,69.67h-40.833l-6.636-172.007
		h37.26v76.561c0,20.671-0.511,40.321-1.021,55.634h0.511c6.125-16.843,12.25-34.198,20.417-55.124l30.624-77.072h40.322
		l-2.042,131.43l0,0h0.511c5.869-17.864,12.25-36.494,18.886-54.869l29.858-76.561h38.534l-75.794,172.007h-39.813"/>
</g>
<g>
	<path fill="#FFFFFF" d="M60.5,378.713c7.7-1.12,17.22-1.96,27.439-1.96c17.641,0,29.681,3.64,38.36,10.92
		c9.24,7.42,14.84,18.76,14.84,34.72c0,16.94-5.74,29.4-14.7,37.521c-9.38,8.54-24.359,12.881-42.699,12.881
		c-9.94,0-17.5-0.561-23.24-1.261V378.713z M77.72,458.793c2.38,0.42,6.02,0.42,9.521,0.42c22.399,0.14,35.699-12.32,35.699-36.26
		c0.141-20.721-11.899-32.761-33.46-32.761c-5.46,0-9.239,0.421-11.76,0.979V458.793z"/>
	<path fill="#FFFFFF" d="M239.839,423.652c0,31.641-19.18,49.699-45.08,49.699c-26.739,0-43.539-20.439-43.539-48.02
		c0-29.12,18.34-49.561,44.939-49.561C223.599,375.772,239.839,396.633,239.839,423.652z M169.42,424.913
		c0,19.319,9.66,34.579,26.179,34.579c16.66,0,26.04-15.54,26.04-35.279c0-17.78-8.819-34.58-26.04-34.58
		C178.52,389.633,169.42,405.453,169.42,424.913z"/>
	<path fill="#FFFFFF" d="M322.298,469.152c-4.061,1.96-13.021,4.199-24.5,4.199c-29.96,0-48.159-18.76-48.159-47.6
		c0-31.08,21.699-49.84,50.539-49.84c11.34,0,19.32,2.38,22.82,4.2l-3.641,13.72c-4.479-1.96-10.779-3.641-18.479-3.641
		c-19.181,0-33.04,12.04-33.04,34.721c0,20.859,12.04,34.02,32.899,34.02c6.859,0,14.141-1.399,18.761-3.359L322.298,469.152z"/>
</g>
</svg>
