<?xml version="1.0" encoding="utf-8"?>
<!-- Generator: Adobe Illustrator 16.0.0, SVG Export Plug-In . SVG Version: 6.00 Build 0)  -->
<!DOCTYPE svg PUBLIC "-//W3C//DTD SVG 1.1//EN" "http://www.w3.org/Graphics/SVG/1.1/DTD/svg11.dtd">
<svg version="1.1" id="Layer_1" xmlns="http://www.w3.org/2000/svg" xmlns:xlink="http://www.w3.org/1999/xlink" x="0px" y="0px"
	 width="512px" height="512px" viewBox="0 0 512 512" enable-background="new 0 0 512 512" xml:space="preserve">
<g>
	<g>
		<g>
			<path fill="#FFFFFF" d="M242.255,271.084L476.92,505.749c4.16,4.16,9.622,6.251,15.083,6.251c5.462,0,10.923-2.091,15.083-6.251
				c8.341-8.341,8.341-21.824,0-30.165L287.504,256.003L507.086,36.421c8.341-8.341,8.341-21.824,0-30.165
				c-8.341-8.341-21.824-8.341-30.165,0L242.257,240.921C233.916,249.262,233.916,262.744,242.255,271.084z"/>
		</g>
	</g>
</g>
<g>
	<g>
		<g>
			<path fill="#FFFFFF" d="M6.255,272.084L240.92,506.749c4.16,4.16,9.622,6.251,15.083,6.251c5.462,0,10.923-2.091,15.083-6.251
				c8.341-8.341,8.341-21.824,0-30.165L51.504,257.003L271.086,37.421c8.341-8.341,8.341-21.824,0-30.165
				c-8.341-8.341-21.824-8.341-30.165,0L6.257,241.921C-2.084,250.262-2.084,263.744,6.255,272.084z"/>
		</g>
	</g>
</g>
</svg>
