<?xml version="1.0" encoding="utf-8"?>
<!-- Generator: Adobe Illustrator 16.0.0, SVG Export Plug-In . SVG Version: 6.00 Build 0)  -->
<!DOCTYPE svg PUBLIC "-//W3C//DTD SVG 1.1//EN" "http://www.w3.org/Graphics/SVG/1.1/DTD/svg11.dtd">
<svg version="1.1" id="Capa_1" xmlns="http://www.w3.org/2000/svg" xmlns:xlink="http://www.w3.org/1999/xlink" x="0px" y="0px"
	 width="383.928px" height="500px" viewBox="0 0 383.928 500" enable-background="new 0 0 383.928 500" xml:space="preserve">
<path fill="#FFFFFF" d="M383.929,491.07V115.875c0-6.214-0.83-8.214-2.295-9.688L277.741,2.295C276.267,0.831,274.267,0,272.187,0
	L0,0.001l0,0L0.001,491.07"/>
<polygon fill="#E5E5E5" points="276.786,1.347 276.786,107.142 382.577,107.142 "/>
<path fill="#CB2229" d="M0,500l-0.001-151.786h383.928L383.929,500"/>
<g>
	<path fill="#FFFFFF" d="M77.5,377.713c6.3-1.12,14.84-1.96,26.319-1.96c12.601,0,21.7,2.66,27.721,7.7
		c5.6,4.62,9.239,12.04,9.239,20.859c0,8.96-2.8,16.239-7.979,21.279c-7,6.86-17.64,10.221-29.82,10.221
		c-3.22,0-6.02-0.141-8.399-0.7v35.7H77.5V377.713z M94.58,421.533c2.239,0.699,4.899,0.84,8.399,0.84
		c12.88,0,20.721-6.44,20.721-17.36c0-10.5-7.28-15.96-19.181-15.96c-4.76,0-8.12,0.42-9.939,0.84V421.533z"/>
	<path fill="#FFFFFF" d="M155.759,377.713c7.7-1.12,17.22-1.96,27.44-1.96c17.64,0,29.679,3.64,38.358,10.92
		c9.24,7.42,14.841,18.76,14.841,34.72c0,16.94-5.739,29.4-14.699,37.521c-9.381,8.54-24.359,12.881-42.7,12.881
		c-9.94,0-17.5-0.561-23.24-1.261V377.713L155.759,377.713z M172.979,457.793c2.38,0.42,6.021,0.42,9.521,0.42
		c22.4,0.14,35.7-12.32,35.7-36.26c0.14-20.721-11.9-32.761-33.459-32.761c-5.461,0-9.24,0.421-11.761,0.979L172.979,457.793
		L172.979,457.793z"/>
	<path fill="#FFFFFF" d="M251.379,376.453h54.6v14.14h-37.38v26.04h34.72v14h-34.72v40.181h-17.22V376.453z"/>
</g>
<path fill="#CB2229" d="M106.196,306.91L106.196,306.91c-3.105,0-6.089-1.01-8.634-2.912c-9.294-6.973-10.544-14.73-9.955-20.018
	c1.625-14.535,19.6-29.75,53.438-45.25c13.429-29.428,26.205-65.687,33.821-95.982c-8.91-19.393-17.571-44.554-11.26-59.313
	c2.214-5.169,4.975-9.134,10.125-10.848c2.036-0.679,7.18-1.536,9.071-1.536c4.5,0,8.456,5.795,11.259,9.366
	c2.634,3.357,8.607,10.474-3.33,60.732c12.036,24.856,29.09,50.179,45.43,67.518c11.705-2.116,21.775-3.196,29.98-3.196
	c13.982,0,22.456,3.259,25.911,9.973c2.857,5.554,1.688,12.045-3.482,19.286c-4.973,6.955-11.829,10.634-19.82,10.634
	c-10.857,0-23.5-6.857-37.599-20.402c-25.33,5.294-54.91,14.742-78.82,25.197c-7.465,15.838-14.616,28.598-21.277,37.955
	C121.902,300.927,114.008,306.91,106.196,306.91z M129.964,261.143c-19.081,10.723-26.857,19.534-27.42,24.5
	c-0.089,0.819-0.33,2.979,3.849,6.178C107.723,291.4,115.49,287.855,129.964,261.143z M251.723,221.481
	c7.276,5.599,9.054,8.429,13.813,8.429c2.089,0,8.044-0.09,10.804-3.938c1.33-1.866,1.848-3.063,2.053-3.705
	c-1.098-0.581-2.553-1.76-10.49-1.76C263.392,220.517,257.723,220.713,251.723,221.481z M185.027,162.713
	c-6.384,22.089-14.813,45.938-23.875,67.535c18.66-7.241,38.946-13.563,58-18.035C207.098,198.213,195.053,180.731,185.027,162.713z
	 M179.607,87.159c-0.875,0.295-11.875,15.688,0.857,28.714C188.937,96.99,179.99,87.034,179.607,87.159z"/>
</svg>
